<?xml version="1.0" encoding="UTF-8"?>
<svg width="70px" height="60px" viewBox="0 0 70 60" version="1.1" xmlns="http://www.w3.org/2000/svg" xmlns:xlink="http://www.w3.org/1999/xlink">
    <!-- Generator: sketchtool 64 (101010) - https://sketch.com -->
    <title>B02B323D-0F15-4761-8C71-9A3808ACC97F</title>
    <desc>Created with sketchtool.</desc>
    <g id="Mobile" stroke="none" stroke-width="1" fill="none" fill-rule="evenodd">
        <g id="M/Homepage" transform="translate(-233.000000, -2604.000000)">
            <g id="Group-13" transform="translate(233.000000, 2604.000000)">
                <rect id="Rectangle-Copy-33" fill="#007FA3" opacity="0.245372954" x="0" y="5.82524272" width="55.3398058" height="54.1747573" rx="4.20378341"></rect>
                <rect id="Rectangle-Copy-34" fill="#FFFFFF" x="5.82524272" y="0" width="55.3398058" height="54.1747573" rx="4.20378341"></rect>
                <g id="Group-17-Copy-2" transform="translate(9.902913, 30.873786)">
                    <rect id="Rectangle" fill="#D3EAE4" x="7.86425941e-14" y="8.40756681" width="2.40216195" height="9.0081073" rx="1.20108097"></rect>
                    <rect id="Rectangle" fill="#FFB81C" opacity="0.49983724" x="4.80216195" y="-1.24172517e-14" width="2.40216195" height="17.4156741" rx="1.20108097"></rect>
                    <rect id="Rectangle" fill="#D3EAE4" x="9.60432389" y="7.20648584" width="2.40216195" height="10.2091883" rx="1.20108097"></rect>
                    <rect id="Rectangle" fill="#D3EAE4" x="14.4064858" y="10.8097288" width="2.40216195" height="6.60594535" rx="1.20108097"></rect>
                    <rect id="Rectangle" fill="#FFB81C" opacity="0.49983724" x="19.2086478" y="5.40486438" width="2.40216195" height="12.0108097" rx="1.20108097"></rect>
                </g>
                <g id="Group-16-Copy-8" opacity="0.49983724" transform="translate(9.902913, 6.990291)">
                    <rect id="Rectangle" fill="#D9E6F1" x="0" y="0" width="10.2091883" height="10.2091883" rx="1.80162146"></rect>
                    <polygon id="Path" fill="#1E496C" fill-rule="nonzero" opacity="0.5" points="5.29309712 6.60594535 5.29309712 4.32555967 6.34404297 5.37650552 6.60594535 5.10459413 5.10459413 3.60324292 3.60324292 5.10459413 3.86681347 5.36649651 4.91775932 4.32555967 4.91775932 6.60594535"></polygon>
                </g>
                <g id="Group-16-Copy-9" opacity="0.49983724" transform="translate(22.135922, 6.990291)">
                    <rect id="Rectangle" fill="#D9E6F1" x="0" y="0" width="10.2091883" height="10.2091883" rx="1.80162146"></rect>
                    <polygon id="Path" fill="#1E496C" fill-rule="nonzero" opacity="0.5" points="5.29309712 6.60594535 5.29309712 4.32555967 6.34404297 5.37650552 6.60594535 5.10459413 5.10459413 3.60324292 3.60324292 5.10459413 3.86681347 5.36649651 4.91775932 4.32555967 4.91775932 6.60594535"></polygon>
                </g>
                <g id="Group-16-Copy-10" transform="translate(34.368932, 6.990291)" fill="#D4EAE4">
                    <rect id="Rectangle" x="0" y="0" width="10.2091883" height="10.2091883" rx="1.80162146"></rect>
                </g>
                <g id="Group-16-Copy-11" transform="translate(46.019417, 6.990291)" fill="#D4EAE4">
                    <rect id="Rectangle" x="0" y="0" width="10.2091883" height="10.2091883" rx="1.80162146"></rect>
                </g>
                <rect id="Rectangle-Copy-35" fill="#FFB81C" opacity="0.49983724" x="34.368932" y="23.3009709" width="22.1359223" height="24.4660194" rx="1.80162146"></rect>
                <circle id="Oval-Copy-12" fill="#DFE3EF" fill-rule="nonzero" cx="9.02912621" cy="3.2038835" r="1"></circle>
                <circle id="Oval-Copy-13" fill="#DFE3EF" fill-rule="nonzero" cx="11.3592233" cy="3.2038835" r="1"></circle>
                <circle id="Oval-Copy-14" fill="#DFE3EF" fill-rule="nonzero" cx="14.2718447" cy="3.2038835" r="1"></circle>
                <g id="Group-1192-Copy-2" transform="translate(39.611650, 25.048544)">
                    <polyline id="Stroke-4621" stroke="#1E496C" stroke-width="1.36486474" stroke-linecap="round" stroke-linejoin="round" points="0 17.7432416 10.4226035 5.93191215 18.2395561 12.4937619 28.0107469 1.33861734"></polyline>
                    <polygon id="Stroke-4622" fill="#1E496C" points="19.1081064 0 29.5106712 0 29.5106712 9.21152464"></polygon>
                </g>
            </g>
        </g>
    </g>
</svg>