<?xml version="1.0" encoding="UTF-8"?>
<svg width="62px" height="60px" viewBox="0 0 62 60" version="1.1" xmlns="http://www.w3.org/2000/svg" xmlns:xlink="http://www.w3.org/1999/xlink">
    <!-- Generator: sketchtool 64 (101010) - https://sketch.com -->
    <title>416255B3-8158-448D-AA0F-3D3F64BD5A52</title>
    <desc>Created with sketchtool.</desc>
    <g id="Mobile" stroke="none" stroke-width="1" fill="none" fill-rule="evenodd">
        <g id="M/Homepage" transform="translate(-62.000000, -2370.000000)">
            <g id="Group-3" transform="translate(62.000000, 2370.000000)">
                <rect id="Rectangle-Copy" fill="#007FA3" opacity="0.245372954" x="0" y="5.82524272" width="55.3398058" height="54.1747573" rx="4.20378341"></rect>
                <rect id="Rectangle-Copy-7" fill="#FFFFFF" x="5.82524272" y="0" width="55.3398058" height="54.1747573" rx="4.20378341"></rect>
                <rect id="Rectangle-Copy-8" fill="#D3EAE4" x="10.4854369" y="32.038835" width="12.2330097" height="12.2330097" rx="1.7434441"></rect>
                <rect id="Rectangle-Copy-9" fill="#D3EAE4" x="27.3786408" y="32.038835" width="12.2330097" height="12.2330097" rx="1.7434441"></rect>
                <rect id="Rectangle-Copy-20" fill="#FFB81C" opacity="0.49983724" x="11.0679612" y="16.3106796" width="2.33009709" height="8.73786408" rx="1.16504854"></rect>
                <rect id="Rectangle-Copy-21" fill="#D3EAE4" x="18.0582524" y="7.57281553" width="2.33009709" height="17.4757282" rx="1.16504854"></rect>
                <rect id="Rectangle-Copy-22" fill="#FFB81C" opacity="0.49983724" x="25.0485437" y="15.1456311" width="2.33009709" height="10.4854369" rx="1.16504854"></rect>
                <rect id="Rectangle-Copy-23" fill="#D3EAE4" x="32.6213592" y="18.6407767" width="2.33009709" height="6.40776699" rx="1.16504854"></rect>
                <rect id="Rectangle-Copy-24" fill="#FFB81C" opacity="0.49983724" x="39.6116505" y="12.815534" width="2.33009709" height="12.2330097" rx="1.16504854"></rect>
                <rect id="Rectangle-Copy-25" fill="#D3EAE4" x="46.6019417" y="7.57281553" width="2.33009709" height="17.4757282" rx="1.16504854"></rect>
                <rect id="Rectangle-Copy-26" fill="#FFB81C" opacity="0.49983724" x="54.1747573" y="15.7281553" width="2.33009709" height="9.32038835" rx="1.16504854"></rect>
                <rect id="Rectangle-Copy-27" fill="#FFB81C" opacity="0.49983724" x="44.2718447" y="32.038835" width="12.2330097" height="12.2330097" rx="1.7434441"></rect>
                <g id="Group-8-Copy" transform="translate(32.621359, 26.796117)" stroke="#1E496C" stroke-linejoin="round" stroke-width="1.80162146">
                    <path d="M18.0162146,9.0081073 C18.0162146,13.9828346 13.9828346,18.0162146 9.0081073,18.0162146 C4.03338004,18.0162146 0,13.9828346 0,9.0081073 C0,4.03338004 4.03338004,0 9.0081073,0 C13.9828346,0 18.0162146,4.03338004 18.0162146,9.0081073 L18.0162146,9.0081073 Z" id="Stroke-1417"></path>
                    <line x1="15.4638653" y1="15.4639697" x2="26.0800216" y2="26.080126" id="Stroke-1418" stroke-linecap="round"></line>
                </g>
            </g>
        </g>
    </g>
</svg>