<?xml version="1.0" encoding="UTF-8"?>
<svg width="307px" height="280px" viewBox="0 0 307 280" version="1.1" xmlns="http://www.w3.org/2000/svg" xmlns:xlink="http://www.w3.org/1999/xlink">
    <!-- Generator: sketchtool 64 (101010) - https://sketch.com -->
    <title>D1A5AF3A-A6A4-47CF-B310-4CBF9DC5F814</title>
    <desc>Created with sketchtool.</desc>
    <g id="Tablet" stroke="none" stroke-width="1" fill="none" fill-rule="evenodd">
        <g id="Tablet/HomePage" transform="translate(-606.000000, -1349.000000)">
            <g id="Group-14" transform="translate(606.000000, 1349.000000)">
                <path d="M296.968518,109.792983 C286.449042,91.2698956 261.520858,47.1523145 183.128947,33.6146584 C104.737035,20.0770024 44.3752633,31.6032853 21.6416089,61.7738824 C-1.09204544,91.9444796 4.39538837,171.05849 114.144065,230.729227 C171.915906,262.139977 246.398357,253.928284 281.118836,217.320072 C312.356557,184.383975 310.295143,133.259003 296.968518,109.792983 Z" id="Mask" fill="#D4EAE4" transform="translate(158.502063, 139.083837) rotate(-180.000000) translate(-158.502063, -139.083837) "></path>
                <g id="Group-7">
                    <circle id="Oval" fill="#E6E6E6" fill-rule="nonzero" cx="3.10093921" cy="3.10093921" r="3.10093921"></circle>
                    <circle id="Oval" fill="#E6E6E6" fill-rule="nonzero" cx="18.7978538" cy="3.10093921" r="3.10093921"></circle>
                    <circle id="Oval" fill="#E6E6E6" fill-rule="nonzero" cx="34.4947685" cy="3.10093921" r="3.10093921"></circle>
                    <circle id="Oval" fill="#E6E6E6" fill-rule="nonzero" cx="50.1916831" cy="3.10093921" r="3.10093921"></circle>
                    <circle id="Oval" fill="#E6E6E6" fill-rule="nonzero" cx="65.8885978" cy="3.10093921" r="3.10093921"></circle>
                    <circle id="Oval" fill="#E6E6E6" fill-rule="nonzero" cx="81.5855124" cy="3.10093921" r="3.10093921"></circle>
                    <circle id="Oval" fill="#E6E6E6" fill-rule="nonzero" cx="97.282427" cy="3.10093921" r="3.10093921"></circle>
                    <circle id="Oval" fill="#E6E6E6" fill-rule="nonzero" cx="112.979342" cy="3.10093921" r="3.10093921"></circle>
                    <circle id="Oval" fill="#E6E6E6" fill-rule="nonzero" cx="128.676256" cy="3.10093921" r="3.10093921"></circle>
                    <circle id="Oval" fill="#E6E6E6" fill-rule="nonzero" cx="144.373171" cy="3.10093921" r="3.10093921"></circle>
                    <circle id="Oval" fill="#E6E6E6" fill-rule="nonzero" cx="3.10093921" cy="18.9948831" r="3.10093921"></circle>
                    <circle id="Oval" fill="#E6E6E6" fill-rule="nonzero" cx="18.7978538" cy="18.9948831" r="3.10093921"></circle>
                    <circle id="Oval" fill="#E6E6E6" fill-rule="nonzero" cx="34.4947685" cy="18.9948831" r="3.10093921"></circle>
                    <circle id="Oval" fill="#005A70" cx="50.1916831" cy="18.9948831" r="3.10093921"></circle>
                    <circle id="Oval" fill="#E6E6E6" fill-rule="nonzero" cx="65.8885978" cy="18.9948831" r="3.10093921"></circle>
                    <circle id="Oval" fill="#E6E6E6" fill-rule="nonzero" cx="81.5855124" cy="18.9948831" r="3.10093921"></circle>
                    <circle id="Oval" fill="#E6E6E6" fill-rule="nonzero" cx="97.282427" cy="18.9948831" r="3.10093921"></circle>
                    <circle id="Oval" fill="#E6E6E6" fill-rule="nonzero" cx="112.979342" cy="18.9948831" r="3.10093921"></circle>
                    <circle id="Oval" fill="#E6E6E6" fill-rule="nonzero" cx="128.676256" cy="18.9948831" r="3.10093921"></circle>
                    <circle id="Oval" fill="#E6E6E6" fill-rule="nonzero" cx="144.373171" cy="18.9948831" r="3.10093921"></circle>
                    <circle id="Oval" fill="#E6E6E6" fill-rule="nonzero" cx="3.10093921" cy="34.8888271" r="3.10093921"></circle>
                    <circle id="Oval" fill="#E6E6E6" fill-rule="nonzero" cx="18.7978538" cy="34.8888271" r="3.10093921"></circle>
                    <circle id="Oval" fill="#E6E6E6" fill-rule="nonzero" cx="34.4947685" cy="34.8888271" r="3.10093921"></circle>
                    <circle id="Oval" fill="#E6E6E6" fill-rule="nonzero" cx="50.1916831" cy="34.8888271" r="3.10093921"></circle>
                    <circle id="Oval" fill="#E6E6E6" fill-rule="nonzero" cx="65.8885978" cy="34.8888271" r="3.10093921"></circle>
                    <circle id="Oval" fill="#E6E6E6" fill-rule="nonzero" cx="81.5855124" cy="34.8888271" r="3.10093921"></circle>
                    <circle id="Oval" fill="#E6E6E6" fill-rule="nonzero" cx="97.282427" cy="34.8888271" r="3.10093921"></circle>
                    <circle id="Oval" fill="#E6E6E6" fill-rule="nonzero" cx="112.979342" cy="34.8888271" r="3.10093921"></circle>
                    <circle id="Oval" fill="#E6E6E6" fill-rule="nonzero" cx="128.676256" cy="34.8888271" r="3.10093921"></circle>
                    <circle id="Oval" fill="#E6E6E6" fill-rule="nonzero" cx="144.373171" cy="34.8888271" r="3.10093921"></circle>
                    <circle id="Oval" fill="#E6E6E6" fill-rule="nonzero" cx="3.10093921" cy="50.7827665" r="3.10093921"></circle>
                    <circle id="Oval" fill="#E6E6E6" fill-rule="nonzero" cx="18.7978538" cy="50.7827665" r="3.10093921"></circle>
                    <circle id="Oval" fill="#E6E6E6" fill-rule="nonzero" cx="34.4947685" cy="50.7827665" r="3.10093921"></circle>
                    <circle id="Oval" fill="#E6E6E6" fill-rule="nonzero" cx="50.1916831" cy="50.7827665" r="3.10093921"></circle>
                    <circle id="Oval" fill="#FFFFFF" fill-rule="nonzero" cx="65.8885978" cy="50.7827665" r="3.10093921"></circle>
                    <circle id="Oval" fill="#E6E6E6" fill-rule="nonzero" cx="81.5855124" cy="50.7827665" r="3.10093921"></circle>
                    <circle id="Oval" fill="#E6E6E6" fill-rule="nonzero" cx="97.282427" cy="50.7827665" r="3.10093921"></circle>
                    <circle id="Oval" fill="#E6E6E6" fill-rule="nonzero" cx="112.979342" cy="50.7827665" r="3.10093921"></circle>
                    <circle id="Oval" fill="#E6E6E6" fill-rule="nonzero" cx="128.676256" cy="50.7827665" r="3.10093921"></circle>
                    <circle id="Oval" fill="#E6E6E6" fill-rule="nonzero" cx="144.373171" cy="50.7827665" r="3.10093921"></circle>
                    <circle id="Oval" fill="#E6E6E6" fill-rule="nonzero" cx="3.10093921" cy="66.6767104" r="3.10093921"></circle>
                    <circle id="Oval" fill="#005A70" cx="18.7978538" cy="66.6767104" r="3.10093921"></circle>
                    <circle id="Oval" fill="#E6E6E6" fill-rule="nonzero" cx="34.4947685" cy="66.6767104" r="3.10093921"></circle>
                    <circle id="Oval" fill="#FFFFFF" fill-rule="nonzero" cx="50.1916831" cy="66.6767104" r="3.10093921"></circle>
                    <circle id="Oval" fill="#FFFFFF" fill-rule="nonzero" cx="65.8885978" cy="66.6767104" r="3.10093921"></circle>
                    <circle id="Oval" fill="#E6E6E6" fill-rule="nonzero" cx="81.5855124" cy="66.6767104" r="3.10093921"></circle>
                    <circle id="Oval" fill="#E6E6E6" fill-rule="nonzero" cx="97.282427" cy="66.6767104" r="3.10093921"></circle>
                    <circle id="Oval" fill="#E6E6E6" fill-rule="nonzero" cx="112.979342" cy="66.6767104" r="3.10093921"></circle>
                    <circle id="Oval" fill="#E6E6E6" fill-rule="nonzero" cx="128.676256" cy="66.6767104" r="3.10093921"></circle>
                    <circle id="Oval" fill="#E6E6E6" fill-rule="nonzero" cx="144.373171" cy="66.6767104" r="3.10093921"></circle>
                    <circle id="Oval" fill="#E6E6E6" fill-rule="nonzero" cx="3.10093921" cy="82.5706543" r="3.10093921"></circle>
                    <circle id="Oval" fill="#E6E6E6" fill-rule="nonzero" cx="18.7978538" cy="82.5706543" r="3.10093921"></circle>
                    <circle id="Oval" fill="#005A70" cx="34.4947685" cy="82.5706543" r="3.10093921"></circle>
                    <circle id="Oval" fill="#FFFFFF" fill-rule="nonzero" cx="50.1916831" cy="82.5706543" r="3.10093921"></circle>
                    <circle id="Oval" fill="#FFFFFF" fill-rule="nonzero" cx="65.8885978" cy="82.5706543" r="3.10093921"></circle>
                    <circle id="Oval" fill="#E6E6E6" fill-rule="nonzero" cx="81.5855124" cy="82.5706543" r="3.10093921"></circle>
                    <circle id="Oval" fill="#E6E6E6" fill-rule="nonzero" cx="97.282427" cy="82.5706543" r="3.10093921"></circle>
                    <circle id="Oval" fill="#E6E6E6" fill-rule="nonzero" cx="112.979342" cy="82.5706543" r="3.10093921"></circle>
                    <circle id="Oval" fill="#E6E6E6" fill-rule="nonzero" cx="128.676256" cy="82.5706543" r="3.10093921"></circle>
                    <circle id="Oval" fill="#E6E6E6" fill-rule="nonzero" cx="144.373171" cy="82.5706543" r="3.10093921"></circle>
                    <circle id="Oval" fill="#E6E6E6" fill-rule="nonzero" cx="3.10093921" cy="98.4645983" r="3.10093921"></circle>
                    <circle id="Oval" fill="#E6E6E6" fill-rule="nonzero" cx="18.7978538" cy="98.4645983" r="3.10093921"></circle>
                    <circle id="Oval" fill="#005A70" cx="34.4947685" cy="98.4645983" r="3.10093921"></circle>
                    <circle id="Oval" fill="#FFFFFF" fill-rule="nonzero" cx="50.1916831" cy="98.4645983" r="3.10093921"></circle>
                    <circle id="Oval" fill="#FFFFFF" fill-rule="nonzero" cx="65.8885978" cy="98.4645983" r="3.10093921"></circle>
                    <circle id="Oval" fill="#E6E6E6" fill-rule="nonzero" cx="81.5855124" cy="98.4645983" r="3.10093921"></circle>
                    <circle id="Oval" fill="#E6E6E6" fill-rule="nonzero" cx="97.282427" cy="98.4645983" r="3.10093921"></circle>
                    <circle id="Oval" fill="#E6E6E6" fill-rule="nonzero" cx="112.979342" cy="98.4645983" r="3.10093921"></circle>
                    <circle id="Oval" fill="#E6E6E6" fill-rule="nonzero" cx="128.676256" cy="98.4645983" r="3.10093921"></circle>
                    <circle id="Oval" fill="#E6E6E6" fill-rule="nonzero" cx="144.373171" cy="98.4645983" r="3.10093921"></circle>
                    <circle id="Oval" fill="#E6E6E6" fill-rule="nonzero" cx="3.10093921" cy="114.358542" r="3.10093921"></circle>
                    <circle id="Oval" fill="#FFFFFF" fill-rule="nonzero" cx="18.7978538" cy="114.358542" r="3.10093921"></circle>
                    <circle id="Oval" fill="#FFFFFF" fill-rule="nonzero" cx="34.4947685" cy="114.358542" r="3.10093921"></circle>
                    <circle id="Oval" fill="#FFFFFF" fill-rule="nonzero" cx="50.1916831" cy="114.358542" r="3.10093921"></circle>
                    <circle id="Oval" fill="#FFFFFF" fill-rule="nonzero" cx="65.8885978" cy="114.358542" r="3.10093921"></circle>
                    <circle id="Oval" fill="#E6E6E6" fill-rule="nonzero" cx="81.5855124" cy="114.358542" r="3.10093921"></circle>
                    <circle id="Oval" fill="#E6E6E6" fill-rule="nonzero" cx="97.282427" cy="114.358542" r="3.10093921"></circle>
                    <circle id="Oval" fill="#E6E6E6" fill-rule="nonzero" cx="112.979342" cy="114.358542" r="3.10093921"></circle>
                    <circle id="Oval" fill="#E6E6E6" fill-rule="nonzero" cx="128.676256" cy="114.358542" r="3.10093921"></circle>
                    <circle id="Oval" fill="#E6E6E6" fill-rule="nonzero" cx="144.373171" cy="114.358542" r="3.10093921"></circle>
                    <circle id="Oval" fill="#E6E6E6" fill-rule="nonzero" cx="3.10093921" cy="130.252486" r="3.10093921"></circle>
                    <circle id="Oval" fill="#FFFFFF" fill-rule="nonzero" cx="18.7978538" cy="130.252486" r="3.10093921"></circle>
                    <circle id="Oval" fill="#FFFFFF" fill-rule="nonzero" cx="34.4947685" cy="130.252486" r="3.10093921"></circle>
                    <circle id="Oval" fill="#FFFFFF" fill-rule="nonzero" cx="50.1916831" cy="130.252486" r="3.10093921"></circle>
                    <circle id="Oval" fill="#FFFFFF" fill-rule="nonzero" cx="65.8885978" cy="130.252486" r="3.10093921"></circle>
                    <circle id="Oval" fill="#E6E6E6" fill-rule="nonzero" cx="81.5855124" cy="130.252486" r="3.10093921"></circle>
                    <circle id="Oval" fill="#E6E6E6" fill-rule="nonzero" cx="97.282427" cy="130.252486" r="3.10093921"></circle>
                    <circle id="Oval" fill="#E6E6E6" fill-rule="nonzero" cx="112.979342" cy="130.252486" r="3.10093921"></circle>
                    <circle id="Oval" fill="#E6E6E6" fill-rule="nonzero" cx="128.676256" cy="130.252486" r="3.10093921"></circle>
                    <circle id="Oval" fill="#E6E6E6" fill-rule="nonzero" cx="144.373171" cy="130.252486" r="3.10093921"></circle>
                    <circle id="Oval" fill="#E6E6E6" fill-rule="nonzero" cx="3.10093921" cy="146.146426" r="3.10093921"></circle>
                    <circle id="Oval" fill="#FFFFFF" fill-rule="nonzero" cx="18.7978538" cy="146.146426" r="3.10093921"></circle>
                    <circle id="Oval" fill="#FFFFFF" fill-rule="nonzero" cx="34.4947685" cy="146.146426" r="3.10093921"></circle>
                    <circle id="Oval" fill="#FFFFFF" fill-rule="nonzero" cx="50.1916831" cy="146.146426" r="3.10093921"></circle>
                    <circle id="Oval" fill="#FFFFFF" fill-rule="nonzero" cx="65.8885978" cy="146.146426" r="3.10093921"></circle>
                    <circle id="Oval" fill="#E6E6E6" fill-rule="nonzero" cx="81.5855124" cy="146.146426" r="3.10093921"></circle>
                    <circle id="Oval" fill="#E6E6E6" fill-rule="nonzero" cx="97.282427" cy="146.146426" r="3.10093921"></circle>
                    <circle id="Oval" fill="#E6E6E6" fill-rule="nonzero" cx="112.979342" cy="146.146426" r="3.10093921"></circle>
                    <circle id="Oval" fill="#E6E6E6" fill-rule="nonzero" cx="128.676256" cy="146.146426" r="3.10093921"></circle>
                    <circle id="Oval" fill="#E6E6E6" fill-rule="nonzero" cx="144.373171" cy="146.146426" r="3.10093921"></circle>
                    <path d="M181.464433,27.9971413 C183.629649,27.9971413 185.384903,29.7523998 185.384903,31.9176152 L185.384903,188.736105 C185.384903,189.775878 184.971854,190.773065 184.236624,191.508296 C183.501393,192.243526 182.504207,192.656575 181.464433,192.656575 L68.9471418,192.656575 C67.9073687,192.656575 66.910182,192.243526 66.1749514,191.508296 C65.4397208,190.773065 65.0266725,189.775878 65.0266725,188.736105 L65.0266725,31.9176106 C65.0266725,29.7523952 66.7819264,27.9971413 68.9471418,27.9971413 L181.464433,27.9971413" id="Path" fill="#19A5A3"></path>
                    <polygon id="Path" fill="#FFFFFF" fill-rule="nonzero" points="70.1744435 187.995729 181.778904 187.995729 181.778904 32.0900653 70.1744435 32.0900653"></polygon>
                    <path d="M156.948324,56.7559615 C157.156279,56.7559615 157.355715,56.8385713 157.502761,56.9856175 C157.649806,57.1326638 157.732414,57.3321011 157.732414,57.5400553 L157.732414,59.108243 C157.732414,59.5412836 157.381365,59.8923324 156.948324,59.8923324 L95.0050367,59.8923324 C94.7970829,59.8923324 94.597646,59.8097248 94.4506005,59.6626792 C94.303555,59.5156337 94.2209474,59.3161968 94.2209474,59.108243 L94.2209474,57.5400553 C94.2209474,57.3321008 94.3035532,57.1326627 94.4505989,56.9856162 C94.5976446,56.8385697 94.7970821,56.7559615 95.0050367,56.7559615 L156.948361,56.7559615" id="Path" fill="#F5C54C" opacity="0.200000003"></path>
                    <path d="M156.948324,64.2048395 C157.381366,64.2048395 157.732414,64.555892 157.732414,64.9889334 L157.732414,66.5571211 C157.732414,66.9901616 157.381365,67.3412104 156.948324,67.3412104 L95.0050367,67.3412104 C94.7970829,67.3412104 94.597646,67.2586028 94.4506005,67.1115573 C94.303555,66.9645117 94.2209474,66.7650749 94.2209474,66.5571211 L94.2209474,64.9889334 C94.2209474,64.7809791 94.3035548,64.5815418 94.4506002,64.4344955 C94.5976456,64.2874493 94.7970825,64.2048395 95.0050367,64.2048395 L156.948361,64.2048395" id="Path" fill="#F5C54C" opacity="0.200000003"></path>
                    <path d="M156.948324,71.6537312 C157.381364,71.6537312 157.732414,72.004781 157.732414,72.4378205 L157.732414,74.0060082 C157.732414,74.4390477 157.381364,74.7900975 156.948324,74.7900975 L95.0050367,74.7900975 C94.5719961,74.7900975 94.2209474,74.4390488 94.2209474,74.0060082 L94.2209474,72.4378205 C94.2209474,72.0047799 94.5719961,71.6537312 95.0050367,71.6537312 L156.948361,71.6537312" id="Path" fill="#FFB81C" fill-rule="nonzero"></path>
                    <path d="M156.948324,79.2656177 C157.381365,79.2656177 157.732414,79.6166664 157.732414,80.049707 L157.732414,81.6178947 C157.732414,82.0509353 157.381365,82.401984 156.948324,82.401984 L95.0050367,82.401984 C94.7970829,82.401984 94.597646,82.3193765 94.4506005,82.1723309 C94.303555,82.0252854 94.2209474,81.8258485 94.2209474,81.6178947 L94.2209474,80.049707 C94.2209474,79.8417532 94.303555,79.6423163 94.4506005,79.4952708 C94.597646,79.3482253 94.7970829,79.2656177 95.0050367,79.2656177 L156.948361,79.2656177" id="Path" fill="#F5C54C" opacity="0.200000003"></path>
                    <path d="M156.948324,86.7144957 C157.381365,86.7144957 157.732414,87.0655445 157.732414,87.498585 L157.732414,89.0667728 C157.732414,89.274727 157.649806,89.4741643 157.502761,89.6212106 C157.355715,89.7682568 157.156279,89.8508666 156.948324,89.8508666 L95.0050367,89.8508666 C94.7970821,89.8508666 94.5976446,89.7682584 94.4505989,89.6212119 C94.3035532,89.4741654 94.2209474,89.2747273 94.2209474,89.0667728 L94.2209474,87.498585 C94.2209474,87.2906313 94.303555,87.0911944 94.4506005,86.9441488 C94.597646,86.7971033 94.7970829,86.7144957 95.0050367,86.7144957 L156.948361,86.7144957" id="Path" fill="#F5C54C" opacity="0.200000003"></path>
                    <path d="M156.948324,94.1633738 C157.381364,94.1633738 157.732414,94.5144235 157.732414,94.9474631 L157.732414,96.5156508 C157.732414,96.9486911 157.381365,97.2997447 156.948324,97.2997447 L95.0050367,97.2997447 C94.5719954,97.2997447 94.2209474,96.9486921 94.2209474,96.5156508 L94.2209474,94.9474631 C94.2209474,94.5144225 94.5719961,94.1633738 95.0050367,94.1633738 L156.948361,94.1633738" id="Path" fill="#F5C54C" opacity="0.200000003"></path>
                    <path d="M95.4006518,119.220939 C94.8981397,119.221441 94.4903966,119.628682 94.4903966,120.131194 L94.4903966,162.419614 C94.4903966,162.922095 94.8981709,163.329292 95.4006518,163.329869 L156.447311,163.329869 C156.949793,163.329295 157.357566,162.922096 157.357566,162.419614 L157.357566,120.131194 C157.357566,119.628682 156.949823,119.221441 156.447311,119.220939 L95.4006518,119.220939 Z" id="Path" fill="#005A70"></path>
                    <polygon id="Path" fill="#3F3D56" fill-rule="nonzero" points="126.18035 73.3580612 125.53953 73.1878435 139.524237 20.5810074 220.639357 20.5810074 220.639357 21.2441284 140.033525 21.2441284"></polygon>
                    <path d="M227.267212,27.8718925 C224.452431,27.8718925 221.914811,26.1763127 220.837639,23.5757949 C219.760468,20.9752771 220.355876,17.9819507 222.346226,15.9915995 C224.336576,14.0012483 227.329902,13.4058379 229.930421,14.4830075 C232.530939,15.560177 234.226523,18.0977963 234.226523,20.912577 C234.222158,24.7542899 231.108925,27.8675258 227.267212,27.8718925 L227.267212,27.8718925 Z M227.267212,14.6160548 C224.720506,14.6160548 222.424564,16.1501502 221.44998,18.5029991 C220.475397,20.8558481 221.0141,23.5640953 222.814892,25.364889 C224.615684,27.1656826 227.323931,27.7043872 229.676781,26.7298054 C232.02963,25.7552237 233.563729,23.4592829 233.563729,20.912577 C233.559782,17.4367422 230.743047,14.6200051 227.267212,14.6160548 Z" id="Shape" fill="#3F3D56" fill-rule="nonzero"></path>
                    <circle id="Oval" fill="#FFB81C" fill-rule="nonzero" cx="227.267212" cy="20.912577" r="2.65116844"></circle>
                    <polygon id="Path" fill="#3F3D56" fill-rule="nonzero" points="124.012122 162.453389 124.652487 162.624517 110.567652 215.2045 29.4525325 215.049302 29.4538979 214.386181 110.059275 214.540924"></polygon>
                    <path d="M22.8384859,207.74573 C25.6532617,207.751125 28.1876276,209.451568 29.2598123,212.054146 C30.3319971,214.656724 29.7308522,217.648904 27.7366906,219.635436 C25.7425291,221.621969 22.7480671,222.21164 20.149618,221.129488 C17.551169,220.047335 15.8604531,217.50647 15.865836,214.691694 C15.8775799,210.849999 18.9967735,207.742738 22.8384859,207.74573 L22.8384859,207.74573 Z M22.8130807,221.001554 C25.3597819,221.006423 27.6586586,219.476728 28.6377479,217.12575 C29.6168372,214.774773 29.0833242,212.065499 27.2859852,210.261258 C25.4886462,208.457018 22.7814365,207.913126 20.426724,208.883198 C18.0720115,209.85327 16.5335168,212.146267 16.5286356,214.692969 C16.5259236,218.168806 19.3372586,220.990936 22.8130807,221.001554 L22.8130807,221.001554 Z" id="Shape" fill="#3F3D56" fill-rule="nonzero"></path>
                    <circle id="Oval" fill="#FFB81C" fill-rule="nonzero" cx="22.8251507" cy="214.705034" r="2.65116844"></circle>
                </g>
                <g id="Group-9" transform="translate(202.304540, 59.622878)">
                    <polygon id="Path" fill="#EE936F" points="21.3533932 204.692282 16.6760466 204.692282 17.5112058 178.799161 29.8733822 179.467288"></polygon>
                    <path d="M21.9917734,219.573198 C20.5799356,220.217554 19.3973366,214.99704 18.2064269,216.167369 C14.8752932,219.440929 11.4334452,220.153772 6.98710327,218.724535 L6.88412154,218.707136 C6.34192732,218.532852 5.89477709,218.144101 5.64679594,217.631407 C5.39881478,217.118714 5.37164571,216.526825 5.57161541,215.993569 L5.57161541,215.993569 C5.81200371,215.352535 6.35213388,214.870619 7.01631791,214.704575 L10.5589767,213.818897 L16.12146,204.036597 L21.7999644,203.652979 L21.7999644,203.652979 C24.3648008,206.922847 25.2894756,211.187882 24.3091148,215.226361 C23.7938056,217.32961 22.9983063,219.113824 21.9917734,219.573198 Z" id="Path" fill="#000000" fill-rule="nonzero"></path>
                    <polygon id="Path" fill="#EE936F" points="65.7915987 201.269722 61.441944 202.990104 52.6948463 178.604822 64.4362286 174.679346"></polygon>
                    <path d="M71.8581267,214.872699 C70.7822414,215.991162 67.7624333,211.571549 67.0854446,213.097861 C65.1918315,217.367158 62.2534275,219.295948 57.5930754,219.602271 L57.4909129,219.623967 C56.9226228,219.661321 56.3638326,219.464282 55.9446648,219.078734 C55.525497,218.693186 55.2825353,218.152778 55.2723569,217.583353 L55.2723569,217.583353 C55.2601207,216.898839 55.5851383,216.252043 56.1416916,215.853349 L59.1102797,213.72677 L60.684903,202.584253 L65.8242769,200.138962 L65.8242769,200.138962 C69.4119946,202.236273 71.840543,205.862251 72.4142608,209.978229 C72.7086464,212.12356 72.6251442,214.075315 71.8581267,214.872699 Z" id="Path" fill="#000000" fill-rule="nonzero"></path>
                    <path d="M51.5913121,76.2401893 L44.4101447,78.086774 C43.3095458,78.3697862 42.1399918,78.1396133 41.2287125,77.4606555 C40.3174331,76.7816978 39.7622952,75.7268717 39.7186209,74.5913074 L39.7186209,74.5913074 C39.6785393,73.549195 40.0732702,72.537282 40.8084122,71.7975718 C41.5435543,71.0578617 42.5530026,70.6568698 43.5953433,70.6904951 L49.920798,70.8945425 L62.1097027,66.4562107 L50.5889891,57.8644936 L51.925403,45.8367678 L74.3774401,63.861642 C75.1867885,64.5113989 75.6887799,65.4690225 75.7627257,66.5042813 L75.7627257,66.5042813 C75.8895217,68.2794208 74.744477,69.8968446 73.0280687,70.3670996 C67.7672531,74.6603776 60.1029404,75.9752777 51.5913121,76.2401893 Z" id="Path" fill="#EE936F"></path>
                    <circle id="Oval" fill="#EE936F" cx="35.2202442" cy="19.4425882" r="11.6936212"></circle>
                    <path d="M49.5866934,35.4795605 L33.8838257,41.8275258 C34.3449056,36.8636053 33.0438075,31.8957984 30.2086701,27.7951767 L43.2387053,24.7882441 C43.0692659,28.7677981 45.2212139,32.3250301 49.5866934,35.4795605 Z" id="Path" fill="#EE936F"></path>
                    <path d="M52.4265714,62.7089949 C39.7683436,63.7221089 32.8445645,62.0411861 22.1902044,55.8598749 L26.1994236,46.504977 L26.1994236,46.504977 C25.7891701,43.6332125 27.0196555,40.7732187 29.3868781,39.096437 L33.5497028,36.1477698 L46.2456334,32.4726143 L46.8151346,32.5010871 C50.3092798,32.6757838 53.12881,35.4207054 53.3971265,38.9089107 C56.1552818,47.1515177 56.1731637,55.1191411 52.4265714,62.7089949 Z" id="Path" fill="#FFFFFF"></path>
                    <path d="M49.920798,82.2540545 L22.8584092,79.2471219 L20.8537905,70.5604287 C16.4103795,63.8528261 18.3498057,57.7088036 23.5266184,51.850633 C32.9627566,57.9065611 41.7218014,60.5234766 54.2641173,58.5327029 C50.9286736,66.6446154 47.8482105,74.6168492 49.920798,82.2540545 Z" id="Path" fill="#003057"></path>
                    <path d="M70.9693171,183.487422 L49.4196388,182.318058 L42.4034688,126.52277 L36.7237082,181.983958 L11.1647879,180.814589 C18.9613562,144.353829 24.3776798,109.740609 22.8584092,77.9106897 L49.5866888,80.249413 C58.645203,89.8005892 63.1430063,105.047096 65.7907066,123.181733 C68.438407,141.316371 70.5724367,162.339139 70.9693171,183.487422 Z" id="Path" fill="#003057"></path>
                    <circle id="Oval" fill="#000000" fill-rule="nonzero" cx="48.0930601" cy="4.77787568" r="4.01937764"></circle>
                    <path d="M43.9514397,3.79387157 C44.0885012,1.6772439 45.8478604,0.0320947422 47.9689149,0.037193589 C47.8859179,0.0266664872 47.8036626,0.0138637473 47.7190499,0.00842497221 C45.5037825,-0.134001793 43.5924937,1.54636749 43.4500668,3.76163489 C43.3076399,5.97690229 44.9880091,7.88819116 47.2032765,8.03061816 C47.2879075,8.03605693 47.371123,8.03389508 47.4547846,8.03408168 C45.3505346,7.76753218 43.8163244,5.91062865 43.9514397,3.79387157 Z" id="Path" fill="#000000" fill-rule="nonzero"></path>
                    <path d="M43.9287562,5.51025339 C40.3441346,2.53656787 30.0624285,6.31599312 29.3989617,8.31524132 C24.5515158,8.9758545 20.8814076,11.8040357 20.8814076,16.8327681 L20.8814076,16.8327954 C23.7633622,18.0134238 27.041032,17.8679286 30.5841777,16.8327954 C36.2322478,21.4356421 36.6194385,27.2219116 33.1845403,33.8679036 L37.4104002,33.9524117 L42.6484958,26.2967464 L42.898989,34.062193 L52.585643,33.8679036 L52.585643,22.7395281 C52.6169609,19.0394564 51.7653371,15.3852735 50.1014564,12.0802754 C48.5919482,9.14767883 46.24937,7.43534764 43.9287562,5.51025339 Z" id="Path" fill="#000000" fill-rule="nonzero"></path>
                    <ellipse id="Oval" fill="#EE936F" cx="34.90855" cy="22.4807016" rx="1.92207675" ry="2.69091019"></ellipse>
                    <path d="M20.2066809,125.680079 C20.5794479,125.680079 20.8816352,125.982271 20.8816352,126.355038 L20.8816352,153.35288 C20.8816352,153.725647 20.5794479,154.027835 20.2066809,154.027835 L0.835721263,154.027835 C0.462954319,154.027835 0.160767004,153.725647 0.160767004,153.35288 L0.160767004,126.355033 C0.160767004,125.982266 0.462954319,125.680079 0.835721263,125.680079 L20.2066809,125.680079" id="Path" fill="#FFFFFF"></path>
                    <path d="M22.8584092,115.664404 L23.5125732,127.00319 C23.5978481,128.481294 23.0134881,129.919312 21.9213438,130.918955 C20.8291995,131.918598 19.3452131,132.373743 17.8804053,132.158329 L17.8804053,132.158329 C14.9996569,131.734692 14.9342004,128.917365 15.6403992,126.092561 L18.3309635,115.330304 C24.9313835,91.6644688 26.7132536,68.4358884 26.3792992,45.7813878 C26.3518382,44.22893 26.9602279,42.7327269 28.0632936,41.6399665 C29.1663594,40.5472061 30.6682071,39.9528868 32.2203388,39.994918 L32.2203388,39.994918 C33.7337298,40.038803 35.167101,40.6845444 36.2027019,41.7889941 C37.2383029,42.8934437 37.7905768,44.3653569 37.7370954,45.8784392 C36.802773,72.4807532 32.9227236,96.638554 22.8584092,115.664404 Z" id="Path" fill="#EE936F"></path>
                </g>
            </g>
        </g>
    </g>
</svg>